<svg xmlns="http://www.w3.org/2000/svg" id="Layer_1" data-name="Layer 1" viewBox="0 0 118 118"><defs><style>.cls-1{fill:#fff0f0}.cls-2,.cls-3,.cls-4{fill:none;stroke:#f04e54;stroke-width:2.5px}.cls-3,.cls-4{stroke-linejoin:round}.cls-4{stroke-linecap:round}</style></defs><rect width="118" height="118" class="cls-1" rx="3"/><path d="M39.1,71.73a7.61,7.61,0,0,1,7.61-7.61h0a7.62,7.62,0,0,1,7.62,7.61v3H39.1Z" class="cls-2"/><path d="M36.46,43.22A3.76,3.76,0,0,0,32.7,47V71a3.76,3.76,0,0,0,3.76,3.76H81.54A3.76,3.76,0,0,0,85.3,71V47a3.76,3.76,0,0,0-3.76-3.76Z" class="cls-3"/><line x1="60.93" x2="78.13" y1="53.61" y2="53.61" class="cls-4"/><line x1="60.93" x2="67.65" y1="60.78" y2="60.78" class="cls-4"/><circle cx="46.71" cy="57.25" r="6.87" class="cls-2"/></svg>